PathFileType	4	(X/Y/Z)	/Users/itak/Documents/Research/Walk-IL/dataset/trc/00545_00009.trc
DataRate	CameraRate	NumFrames	NumMarkers	Units	OrigDataRate	OrigDataStartFrame	OrigNumFrames
100.000000	100.000000	4	54	mm	100.000000	366	587
Frame#	Time	RPSI			LPSI			L3			STRN			T10			C7			CLAV			RBAK			LBAK			LSHO			LUPA			LAEL			LAOL			LWTS			LWPS			LFRA			LHPS			LHTS			RSHO			RUPA			RAEL			RAOL			RWTS			RWPS			RFRA			RIFD			RHTS			RHPS			RBHD			LFHD			RFHD			LBHD			LHIP			RHIP			RASI			LASI			LKNE			LTHI			LANK			LTIP			LTOE			LMT1			LMT5			LHEE			RKNE			RTHI			RANK			RTIP			RTOE			RMT1			RMT5			RHEE			LIFD			*53			
		X1	Y1	Z1	X2	Y2	Z2	X3	Y3	Z3	X4	Y4	Z4	X5	Y5	Z5	X6	Y6	Z6	X7	Y7	Z7	X8	Y8	Z8	X9	Y9	Z9	X10	Y10	Z10	X11	Y11	Z11	X12	Y12	Z12	X13	Y13	Z13	X14	Y14	Z14	X15	Y15	Z15	X16	Y16	Z16	X17	Y17	Z17	X18	Y18	Z18	X19	Y19	Z19	X20	Y20	Z20	X21	Y21	Z21	X22	Y22	Z22	X23	Y23	Z23	X24	Y24	Z24	X25	Y25	Z25	X26	Y26	Z26	X27	Y27	Z27	X28	Y28	Z28	X29	Y29	Z29	X30	Y30	Z30	X31	Y31	Z31	X32	Y32	Z32	X33	Y33	Z33	X34	Y34	Z34	X35	Y35	Z35	X36	Y36	Z36	X37	Y37	Z37	X38	Y38	Z38	X39	Y39	Z39	X40	Y40	Z40	X41	Y41	Z41	X42	Y42	Z42	X43	Y43	Z43	X44	Y44	Z44	X45	Y45	Z45	X46	Y46	Z46	X47	Y47	Z47	X48	Y48	Z48	X49	Y49	Z49	X50	Y50	Z50	X51	Y51	Z51	X52	Y52	Z52	X53	Y53	Z53	X54	Y54	Z54	

367	3.66	621.9199829101562	1011.114807128906	412.8773193359375	627.912109375	1009.420593261719	278.9205322265625	629.5548095703125	1105.303466796875	338.7196044921875	864.5707397460938	1291.865112304688	344.0965881347656	623.282470703125	1230.36376953125	336.7314758300781	670.18798828125	1503.231201171875	356.7974243164062	844.6197509765625	1403.0615234375	347.6239013671875	598.6354370117188	1375.663818359375	436.2712707519531	639.1403198242188	1452.577026367188	263.9432067871094	739.4974365234375	1481.132446289062	186.2924194335938	723.5939331054688	1360.656005859375	98.51530456542969	718.4549560546875	1141.445190429688	61.30801010131836	632.8281860351562	1140.262084960938	114.8767547607422	783.8778076171875	885.4351196289062	82.28715515136719	732.1980590820312	874.1998291015625	12.86807632446289	730.6604614257812	1053.715454101562	46.02137756347656	733.9481811523438	813.4881591796875	15.22598075866699	788.48876953125	808.4666137695312	55.97668075561523	725.9423217773438	1463.412475585938	512.3303833007812	702.3907470703125	1399.344360351562	578.0213623046875	687.8327026367188	1112.339965820312	626.7395629882812	633.405517578125	1094.610961914062	597.3681640625	830.8037719726562	898.5435180664062	600.1939697265625	781.7545166015625	875.9072265625	661.6260986328125	698.48193359375	1057.893188476562	635.7749633789062	854.5084228515625	727.2713012695312	607.8609008789062	864.051025390625	810.1232299804688	618.9790649414062	803.6749877929688	803.0538330078125	662.1107177734375	752.9984130859375	1681.08984375	431.4905090332031	909.9308471679688	1705.38623046875	296.6847839355469	892.5437622070312	1697.898559570312	440.2503967285156	779.7883911132812	1687.431640625	268.7048645019531	757.1525268554688	929.9703979492188	152.3004913330078	748.263671875	943.2655029296875	536.24560546875	833.4657592773438	974.4960327148438	476.9046020507812	835.1076049804688	958.0470581054688	201.9709014892578	838.3375244140625	484.7529907226562	170.0706787109375	819.3831176757812	655.7481689453125	153.9113311767578	441.5319519042969	195.8627624511719	161.9813079833984	624.9358520507812	341.8362731933594	159.4697875976562	593.131103515625	54.58554458618164	203.3775024414062	545.6768798828125	102.1321868896484	244.1034698486328	518.683349609375	107.0010833740234	141.7929382324219	405.6106262207031	249.4489288330078	218.7660064697266	842.7890625	505.4921264648438	466.4250183105469	807.10400390625	791.5643310546875	527.5112915039062	769.0089721679688	36.93783187866211	427.2619934082031	850.42724609375	359.9894104003906	445.2962341308594	987.70556640625	43.01144027709961	377.52978515625	922.6248779296875	44.74298095703125	340.2590637207031	902.4629516601562	39.24341583251953	444.6259460449219	712.0105590820312	32.96696090698242	371.0502319335938	758.157470703125	717.72265625	65.80963897705078	nan	nan	nan	
368	3.67	628.0922241210938	1011.629821777344	413.5934143066406	634.1995849609375	1009.910461425781	279.699462890625	635.7200927734375	1106.163940429688	340.0711364746094	871.1015014648438	1292.486450195312	344.8373107910156	629.617431640625	1231.279052734375	338.6172485351562	677.1469116210938	1504.037231445312	358.8116455078125	851.3723754882812	1403.658447265625	348.3913879394531	605.8645629882812	1376.610717773438	438.6945495605469	645.417724609375	1453.44775390625	266.2006530761719	745.2068481445312	1481.965087890625	187.8689880371094	728.208251953125	1361.732055664062	100.0780029296875	722.063232421875	1142.705200195312	62.49627304077148	637.1143188476562	1141.500854492188	116.6978225708008	788.5761108398438	887.0724487304688	82.25334167480469	735.8823852539062	875.5433959960938	13.6141881942749	734.297607421875	1055.061767578125	46.80429840087891	738.1382446289062	814.8320922851562	15.92335414886475	793.447509765625	810.2625122070312	55.68476867675781	734.0682373046875	1464.122924804688	514.0186157226562	710.904296875	1399.998291015625	579.7879638671875	697.6837768554688	1113.040405273438	628.9513549804688	643.1041259765625	1094.9013671875	600.046142578125	841.5896606445312	899.9628295898438	601.5398559570312	793.189208984375	877.1434936523438	663.39111328125	708.71923828125	1058.6806640625	637.999267578125	866.2698364257812	728.8551635742188	609.27734375	875.4915771484375	811.7608032226562	620.1654663085938	815.5303955078125	804.457275390625	663.8219604492188	760.5065307617188	1681.690063476562	432.9609680175781	917.1373291015625	1705.787353515625	297.7223815917969	900.09716796875	1698.255859375	441.3707580566406	786.8741455078125	1688.069091796875	270.0953979492188	764.2359619140625	931.0492553710938	153.2499389648438	753.8319702148438	943.5257568359375	537.3560180664062	839.3345947265625	974.9227294921875	478.5154724121094	841.691162109375	959.225341796875	203.5279083251953	852.3848876953125	487.0576782226562	171.3555450439453	830.5637817382812	657.6604614257812	154.7260131835938	460.2362670898438	192.8230590820312	163.2649230957031	640.7974243164062	341.6958923339844	160.8995361328125	616.69189453125	55.92811584472656	200.8011779785156	567.8047485351562	100.687629699707	242.7455596923828	540.268798828125	107.0651016235352	140.6544189453125	422.9273681640625	244.0171661376953	221.3700561523438	844.8441162109375	505.0548095703125	467.2335205078125	811.962890625	791.3649291992188	528.3185424804688	768.9811401367188	36.93801116943359	427.3031311035156	851.610107421875	359.605712890625	445.9105834960938	987.6951293945312	42.99750900268555	377.5671691894531	922.64111328125	44.74732971191406	340.3077087402344	902.451904296875	39.19869613647461	444.6918640136719	711.986572265625	33.00698852539062	371.0674743652344	764.0660400390625	719.27001953125	66.01570129394531	nan	nan	nan	
369	3.68	634.1837158203125	1012.079284667969	414.1553344726562	640.4537963867188	1010.404052734375	280.3556823730469	641.8485107421875	1106.985961914062	341.3367309570312	877.56982421875	1293.075927734375	345.5716247558594	635.9363403320312	1232.129760742188	340.398193359375	684.0387573242188	1504.792846679688	360.7655639648438	858.056640625	1404.221435546875	349.1403503417969	613.005859375	1377.511840820312	441.0753173828125	651.6407470703125	1454.266723632812	268.4052429199219	750.864013671875	1482.741455078125	189.4136505126953	732.7964477539062	1362.739135742188	101.6469268798828	725.6978759765625	1143.892333984375	63.71258544921875	641.4296875	1142.641479492188	118.5684204101562	793.3607788085938	888.6416625976562	82.35987091064453	739.712158203125	876.8052368164062	14.48062515258789	737.9879150390625	1056.33447265625	47.66368103027344	742.4479370117188	816.1010131835938	16.75349044799805	798.4993896484375	811.9749145507812	55.53805160522461	742.0628662109375	1464.772094726562	515.615234375	719.3297729492188	1400.626342773438	581.4927978515625	707.4698486328125	1113.713134765625	631.0450439453125	652.742431640625	1095.195190429688	602.6073608398438	852.2109375	901.2864379882812	602.7947998046875	804.45556640625	878.3297729492188	665.0508422851562	718.86083984375	1059.426513671875	640.1220703125	877.7847290039062	730.3338012695312	610.6009521484375	886.7149658203125	813.29296875	621.2559204101562	827.1893920898438	805.799072265625	665.4237060546875	767.9781494140625	1682.261962890625	434.3822937011719	924.3092651367188	1706.09716796875	298.7209777832031	907.60546875	1698.537963867188	442.4391784667969	793.927978515625	1688.662353515625	271.4416198730469	771.3907470703125	932.1318969726562	154.1142578125	759.28173828125	943.6908569335938	538.3433837890625	845.095703125	975.2936401367188	480.1420593261719	848.2696533203125	960.3595581054688	205.1174011230469	866.1336059570312	489.3875427246094	172.8364410400391	841.6026000976562	659.574462890625	155.6252136230469	479.5914611816406	188.6178588867188	164.4767761230469	656.7816772460938	340.9572143554688	162.3873748779297	640.8861694335938	56.72596740722656	198.9182891845703	590.6007080078125	98.75121307373047	241.7012329101562	562.5899047851562	106.2034683227539	139.8468322753906	440.7816467285156	237.4392242431641	223.6383361816406	846.8665161132812	504.613525390625	468.0166015625	816.7725830078125	791.10693359375	529.0928955078125	768.9860229492188	36.94595336914062	427.3125610351562	852.7811279296875	359.2278747558594	446.4927978515625	987.6875610351562	42.9871711730957	377.5958862304688	922.656982421875	44.74036407470703	340.3572692871094	902.4439697265625	39.15676498413086	444.7563171386719	711.9492797851562	33.05799865722656	371.0591430664062	770.0206298828125	720.7571411132812	66.38025665283203	nan	nan	nan	
370	3.69	640.1922607421875	1012.464111328125	414.5914001464844	646.6775512695312	1010.890686035156	280.9075622558594	647.962158203125	1107.764526367188	342.5075378417969	883.9793090820312	1293.624145507812	346.3135986328125	642.2666015625	1232.903686523438	342.05078125	690.866943359375	1505.4892578125	362.6561584472656	864.6742553710938	1404.741455078125	349.8859558105469	620.0661010742188	1378.3564453125	443.4050903320312	657.8215942382812	1455.025024414062	270.5496215820312	756.4901123046875	1483.44873046875	190.9258270263672	737.3912963867188	1363.66162109375	103.2139587402344	729.3872680664062	1144.990234375	64.94859313964844	645.78271484375	1143.673095703125	120.4718780517578	798.2281494140625	890.1200561523438	82.61196899414062	743.6929321289062	877.9642944335938	15.46696090698242	741.7553100585938	1057.513671875	48.59379577636719	746.879150390625	817.2753295898438	17.71383666992188	803.6298217773438	813.57763671875	55.55595016479492	749.9078369140625	1465.350219726562	517.1182861328125	727.6502685546875	1401.221923828125	583.13818359375	717.1634521484375	1114.348876953125	633.0215454101562	662.2943725585938	1095.485473632812	605.04541015625	862.6649169921875	902.52978515625	603.9514770507812	815.5504760742188	879.4674072265625	666.6029052734375	728.884521484375	1060.126586914062	642.1428833007812	889.0723876953125	731.7220458984375	611.8262939453125	897.7203979492188	814.7354125976562	622.2557983398438	838.64404296875	807.0811767578125	666.91796875	775.406982421875	1682.799682617188	435.7557373046875	931.4400024414062	1706.317626953125	299.6855163574219	915.060791015625	1698.746826171875	443.4577331542969	800.9482421875	1689.205200195312	272.7426452636719	778.5923461914062	933.200439453125	154.8973388671875	764.6430053710938	943.7630004882812	539.2203979492188	850.7705688476562	975.6014404296875	481.7662658691406	854.8301391601562	961.4375	206.7160339355469	879.59228515625	491.7159118652344	174.5112457275391	852.4954223632812	661.46875	156.61767578125	499.5695190429688	183.3399658203125	165.6309509277344	672.8985595703125	339.631591796875	163.9261474609375	665.6310424804688	57.03064346313477	197.7169952392578	614.00341796875	96.39271545410156	240.9936676025391	585.5828247070312	104.499755859375	139.3650665283203	459.1940002441406	229.8416595458984	225.5801544189453	848.860107421875	504.1648864746094	468.7716674804688	821.534423828125	790.810791015625	529.8388061523438	769.0181274414062	36.96338272094727	427.2914733886719	853.9434814453125	358.8542785644531	447.0367431640625	987.6769409179688	42.97562789916992	377.6232604980469	922.67138671875	44.72118377685547	340.4069213867188	902.43896484375	39.11952972412109	444.8165893554688	711.909912109375	33.11587905883789	371.0255432128906	775.9896240234375	722.1603393554688	66.91591644287109	nan	nan	nan	
